<?xml version="1.0" encoding="UTF-8" standalone="no"?>
<!-- Created with Inkscape (http://www.inkscape.org/) -->

<svg
   width="210mm"
   height="297mm"
   viewBox="0 0 210 297"
   version="1.1"
   id="svg5"
   inkscape:version="1.1 (c4e8f9ed74, 2021-05-24)"
   xmlns:inkscape="http://www.inkscape.org/namespaces/inkscape"
   xmlns:sodipodi="http://sodipodi.sourceforge.net/DTD/sodipodi-0.dtd"
   xmlns="http://www.w3.org/2000/svg"
   xmlns:svg="http://www.w3.org/2000/svg">
  <sodipodi:namedview
     id="namedview7"
     pagecolor="#505050"
     bordercolor="#eeeeee"
     borderopacity="1"
     inkscape:pageshadow="0"
     inkscape:pageopacity="0"
     inkscape:pagecheckerboard="0"
     inkscape:document-units="mm"
     showgrid="true"
     inkscape:snap-smooth-nodes="false"
     inkscape:zoom="0.5"
     inkscape:cx="740"
     inkscape:cy="906"
     inkscape:window-width="1834"
     inkscape:window-height="998"
     inkscape:window-x="43"
     inkscape:window-y="49"
     inkscape:window-maximized="0"
     inkscape:current-layer="layer1">
    <inkscape:grid
       type="xygrid"
       id="grid1166" />
  </sodipodi:namedview>
  <defs
     id="defs2" />
  <g
     inkscape:label="Layer 1"
     inkscape:groupmode="layer"
     id="layer1">
    <path
       id="path1930"
       style="fill:#00ffff;stroke-width:0.34367"
       d="m 201.08324,82.893762 -1.12138,1.046448 c -0.61674,0.57544 -42.4212,37.44095 -92.89872,81.92368 -50.47751,44.48271 -92.240055,81.32 -92.805705,81.86064 l -0.873331,0.83509 c 0.0011,7.9e-4 0.0016,0.002 0.0026,0.003 -0.0019,5.3e-4 -0.0052,10e-4 -0.0072,0.002 l -0.03204,0.031 c 0.01704,0.002 0.03378,0.004 0.05374,0.006 -0.0031,-0.0195 -0.0079,-0.032 -0.01394,-0.0388 0.0474,-0.0118 0.05009,-0.009 0.05012,0.0419 0.0054,5.3e-4 0,0.011 0,0.016 v 0.003 0.0109 c -1.1e-5,0.0137 -6.4e-5,0.0272 0,0.0408 0.03206,9e-5 0.06405,1.8e-4 0.09612,0 0.01214,4e-5 0.02405,9e-5 0.03617,5.3e-4 0.0032,1.1e-4 0.0066,-1.4e-4 0.0098,0 5.29e-4,2e-5 0.0013,2.5e-4 0.0011,5.3e-4 0.01717,-0.003 0.02765,-0.004 0.04909,-0.004 0.01365,2.3e-4 0.05631,0.007 0.07131,0.0124 h 5.29e-4 c 0.0024,-5e-5 0.0053,0.001 0.0078,0.001 2.65e-4,0 7.94e-4,-1e-5 0.0011,0 0.02135,-0.002 0.04299,-0.002 0.06511,5.3e-4 0.0104,0.001 0.02114,0.001 0.03152,0.002 0.0027,0 0.0058,-0.001 0.0078,0.001 0.0013,0.001 -0.0037,0.004 -0.0021,0.004 0.0071,-0.001 0.01379,-0.004 0.02066,-0.006 0.03388,-0.009 0.02871,-0.007 0.05891,-0.015 0.0021,-5.2e-4 0.05973,-0.0155 0.06253,-0.016 0.03784,-0.007 0.07377,-0.005 0.111104,-0.0129 0.0466,-0.007 0.09002,-0.0104 0.136943,-0.0114 0.01738,-5.3e-4 0.03488,-0.003 0.05219,-0.001 0.0357,0.003 0.07099,0.0105 0.106455,0.0155 2.6e-5,2.5e-4 -2.7e-5,7.9e-4 0,10e-4 0.02479,0.014 0.01852,0.002 0.05426,0.008 0.02228,0.003 0.04423,0.01 0.06614,0.0155 0.0013,-1e-5 0.0024,-5.3e-4 0.0047,-5.3e-4 0.0016,2.7e-4 0.0043,0.001 0.0067,0.002 0.0028,2.7e-4 0.003,5.3e-4 0.0067,10e-4 0.0363,0.006 0.09436,0.0119 0.136424,0.0279 0.01524,-7.9e-4 0.02984,-0.005 0.04599,-0.005 0.01405,-5e-5 0.02803,-0.001 0.04186,0.001 0.01802,0.003 0.03597,0.007 0.05374,0.0119 h 0.01654 92.361801 93.92708 V 165.80085 Z M 14.493081,248.67124 c -0.0027,-2.7e-4 -0.005,-2.7e-4 -0.0067,-5.3e-4 0.0041,10e-4 0.0083,0.002 0.01241,0.003 -0.0011,-5.3e-4 -0.0032,-0.001 -0.0057,-0.002 z" />
    <path
       id="path2006"
       style="fill:#00ffff;stroke-width:0.347776"
       d="m 36.454529,77.582977 c -7.214269,-0.01 -14.675138,1.27119 -20.965128,3.600296 l -2.260327,0.837158 -0.08785,84.069289 c -0.06553,62.85068 -0.05992,78.74528 0.224277,82.46835 0.008,-0.003 0.01532,-0.002 0.02119,0.004 -0.0055,0.001 -0.01384,0.003 -0.02066,0.005 2.65e-4,0.005 5.29e-4,0.0246 0.0011,0.0294 0.01146,10e-4 0.02143,0.003 0.0341,0.004 -0.0031,-0.0195 -0.0079,-0.032 -0.01394,-0.0388 0.0474,-0.0118 0.05009,-0.009 0.05012,0.0419 0.0054,5.3e-4 0,0.011 0,0.016 v 0.003 0.0108 c -1.1e-5,0.0137 -6.4e-5,0.0272 0,0.0408 0.03206,9e-5 0.06405,1.8e-4 0.09612,0 0.01214,4e-5 0.02405,8e-5 0.03617,5.3e-4 0.0032,1.1e-4 0.0066,-1.4e-4 0.0098,0 5.29e-4,2e-5 0.0013,2.5e-4 0.0011,5.3e-4 0.01717,-0.003 0.02765,-0.004 0.04909,-0.004 0.01365,2.3e-4 0.05631,0.007 0.07131,0.0124 h 5.29e-4 c 0.0024,-5e-5 0.0053,0.001 0.0078,0.001 2.65e-4,0 7.94e-4,-1e-5 0.0011,0 0.02135,-0.002 0.04299,-0.002 0.06511,5.3e-4 0.0104,0.001 0.02114,0.001 0.03152,0.002 0.0027,0 0.0058,-0.001 0.0078,0.001 0.0013,10e-4 -0.0037,0.004 -0.0021,0.004 0.0071,-0.001 0.01379,-0.004 0.02066,-0.006 0.03388,-0.009 0.02871,-0.007 0.05891,-0.015 0.0021,-5.3e-4 0.05973,-0.0155 0.06253,-0.016 0.03784,-0.007 0.07377,-0.005 0.111104,-0.0129 0.0466,-0.007 0.09002,-0.0104 0.136943,-0.0114 0.01738,-5.3e-4 0.03488,-0.003 0.05219,-0.001 0.0357,0.003 0.07098,0.0105 0.106455,0.0155 2.6e-5,2.5e-4 -2.7e-5,7.9e-4 0,10e-4 0.02479,0.014 0.01852,0.002 0.05426,0.008 0.02228,0.003 0.04423,0.0101 0.06615,0.0155 0.0013,-1e-5 0.0024,-5.3e-4 0.0047,-5.3e-4 0.0016,2.7e-4 0.0043,0.001 0.0067,0.002 0.0028,2.6e-4 0.003,5.3e-4 0.0067,10e-4 0.03685,0.006 0.0963,0.0119 0.138491,0.0284 0.01455,-7.9e-4 0.0285,-0.006 0.04393,-0.006 0.01405,-5e-5 0.02803,-0.001 0.04186,0.001 0.01283,0.002 0.02551,0.005 0.03824,0.008 C 22.670447,241.87881 193.6174,89.866927 198.65915,85.170382 c 0.99277,-0.924766 1.75398,-1.681551 1.69137,-1.681551 -0.0626,0 -2.20491,0.533437 -4.76094,1.185458 -5.90661,1.506717 -9.56127,1.94225 -16.30702,1.94355 -9.09235,0.0016 -14.40004,-0.971318 -23.56807,-4.320149 -8.94675,-3.267996 -13.90139,-4.316439 -21.81986,-4.617289 -7.94316,-0.301789 -15.2979,0.768348 -22.21725,3.232878 C 98.468925,85.617854 95.617455,86.24938 86.379705,86.515519 76.150167,86.810233 69.972258,85.8247 60.874285,82.446518 51.601634,79.00348 44.525646,77.594438 36.454587,77.583249 Z M 14.493081,248.67124 c -0.0027,-2.7e-4 -0.005,-2.7e-4 -0.0067,-5.3e-4 0.0041,10e-4 0.0083,0.002 0.01241,0.003 -0.0011,-5.3e-4 -0.0032,-0.001 -0.0057,-0.002 z m 0.242877,0.0413 c -0.02786,0 -0.04682,0.001 -0.02842,0.004 0.01397,0.002 0.029,2e-4 0.04393,-0.003 1.3e-4,-1.1e-4 7.94e-4,-7.9e-4 0.0011,-0.001 -0.0057,-1.5e-4 -0.0114,-5.3e-4 -0.01654,-5.3e-4 z" />
    <path
       style="fill:#00ffff;stroke-width:0.11618"
       d=""
       id="path2193"
       transform="scale(0.26458333)" />
  </g>
</svg>
